<?xml version="1.0" encoding="UTF-8" standalone="no"?>
<!-- Created with Inkscape (http://www.inkscape.org/) -->
<svg
   width="3.5859945mm"
   height="3.5859945mm"
   viewBox="0 0 3.5859945 3.5859945"
   version="1.1"
   id="svg1"
   inkscape:version="1.3.2 (091e20ef0f, 2023-11-25)"
   sodipodi:docname="waza.svg"
   xmlns:inkscape="http://www.inkscape.org/namespaces/inkscape"
   xmlns:sodipodi="http://sodipodi.sourceforge.net/DTD/sodipodi-0.dtd"
   xmlns="http://www.w3.org/2000/svg"
   xmlns:svg="http://www.w3.org/2000/svg">
  <sodipodi:namedview
     id="namedview1"
     pagecolor="#ffffff"
     bordercolor="#000000"
     borderopacity="0.25"
     inkscape:showpageshadow="2"
     inkscape:pageopacity="0.0"
     inkscape:pagecheckerboard="0"
     inkscape:deskcolor="#d1d1d1"
     inkscape:document-units="mm"
     inkscape:zoom="11.583839"
     inkscape:cx="18.258195"
     inkscape:cy="5.1796298"
     inkscape:window-width="2560"
     inkscape:window-height="1406"
     inkscape:window-x="0"
     inkscape:window-y="0"
     inkscape:window-maximized="1"
     inkscape:current-layer="layer1" />
  <defs
     id="defs1" />
  <g
     inkscape:label="Layer 1"
     inkscape:groupmode="layer"
     id="layer1"
     transform="translate(-86.132385,-85.104561)">
    <rect
       style="fill:#000000;stroke-width:0.264583"
       id="rect1"
       width="3.5859945"
       height="3.5859945"
       x="86.132385"
       y="85.104561" />
    <path
       d="m 87.578949,85.868598 v 0.22225 h 1.749425 v -0.22225 z m 0.06668,0.6985 v 0.219075 h 1.400175 v -0.219075 z m 0.682625,-1.20015 v 1.323975 h 0.23495 v -1.323975 z m -0.37465,1.362075 -0.2159,0.0635 c 0.276225,0.746125 0.790575,1.273175 1.552575,1.4986 0.03493,-0.06033 0.1016,-0.155575 0.155575,-0.2032 -0.74295,-0.19685 -1.254125,-0.69215 -1.49225,-1.3589 z m 1.07315,-0.161925 v 0.04128 c -0.231775,0.784225 -0.9017,1.27635 -1.628775,1.463675 0.04445,0.0508 0.104775,0.1524 0.127,0.2159 0.777875,-0.23495 1.470025,-0.752475 1.7399,-1.6637 l -0.149225,-0.06668 -0.04445,0.0095 z m -2.530475,0.4826 0.06985,0.2286 c 0.282575,-0.08255 0.650875,-0.1905 0.99695,-0.295275 l -0.02858,-0.2159 c -0.377825,0.10795 -0.771525,0.2159 -1.038225,0.282575 z m 0.04127,-1.0414 v 0.225425 h 0.99695 v -0.225425 z m 0.409575,-0.638175 v 2.632075 c 0,0.04445 -0.01905,0.06033 -0.06032,0.06033 -0.04127,0.0032 -0.180975,0.0032 -0.3302,0 0.03175,0.0635 0.06668,0.15875 0.07303,0.219075 0.219075,0 0.352425,-0.0063 0.434975,-0.04445 0.08573,-0.03493 0.117475,-0.1016 0.117475,-0.23495 v -2.632075 z"
       id="text1"
       style="font-size:3.175px;fill:#ffffff;stroke-width:0.264583"
       aria-label="技" />
  </g>
</svg>
